# xmcd
#
# Track frame offsets:
#	150
#	10409
#	26933
#	40387
#	54488
#	68932
#	81973
#	96948
#	109401
#	126460
#	139640
#	150614
#	166590
#	177834
#	194405
#	210251
#	224834
#	244448
#	268119
#	285251
#
# Disc length: 4052 seconds
#
# Revision: 1
# Processed by: cddbd v1.5.2PL0 Copyright (c) Steve Scherf et al.
# Submitted via: audiograbber 1.83.01
#
DISCID=2f0fd214
DTITLE=Alan Jackson - Genuine: The Alan Jackson Story CD1
DYEAR=2015
DGENRE=Country
TTITLE0=Blue Blooded Woman
TTITLE1=Here In the Real World
TTITLE2=Wanted
TTITLE3=Chasin' That Neon Rainbow
TTITLE4=I'd Love You All Over Again
TTITLE5=Don't Rock the Jukebox
TTITLE6=Someday
TTITLE7=Dallas
TTITLE8=Midnight In Montgomery
TTITLE9=Love's Got a Hold On You
TTITLE10=She's Got the Rhythm (And I Got the Blues)
TTITLE11=Tonight I Climbed the Wall
TTITLE12=Chattahoochee
TTITLE13=Mercury Blues
TTITLE14=(Who Says) You Can't Have It All
TTITLE15=Summertime Blues
TTITLE16=Gone Country
TTITLE17=Born Too Late
TTITLE18=If Tears Could Talk
TTITLE19=Seven Bridges Road (Live)
EXTD=
EXTT0=
EXTT1=
EXTT2=
EXTT3=
EXTT4=
EXTT5=
EXTT6=
EXTT7=
EXTT8=
EXTT9=
EXTT10=
EXTT11=
EXTT12=
EXTT13=
EXTT14=
EXTT15=
EXTT16=
EXTT17=
EXTT18=
EXTT19=
PLAYORDER=
